<svg width="42" height="42" viewBox="0 0 42 42" fill="none" xmlns="http://www.w3.org/2000/svg">
<path d="M12.1449 8.75004C12.1444 9.6783 11.7752 10.5684 11.1185 11.2244C10.4618 11.8805 9.57141 12.2488 8.64315 12.2483C7.71489 12.2478 6.82484 11.8786 6.16879 11.2219C5.51274 10.5652 5.14443 9.6748 5.1449 8.74654C5.14536 7.81828 5.51456 6.92823 6.17126 6.27218C6.82797 5.61613 7.71839 5.24783 8.64665 5.24829C9.57491 5.24876 10.465 5.61795 11.121 6.27465C11.7771 6.93136 12.1454 7.82178 12.1449 8.75004ZM12.2499 14.84H5.2499V36.75H12.2499V14.84ZM23.3099 14.84H16.3449V36.75H23.2399V25.2525C23.2399 18.8475 31.5874 18.2525 31.5874 25.2525V36.75H38.4999V22.8725C38.4999 12.075 26.1449 12.4775 23.2399 17.78L23.3099 14.84Z" fill="#03053D"/>
</svg>
